<svg width="36" height="36" viewBox="0 0 36 36" fill="none" xmlns="http://www.w3.org/2000/svg">
<path d="M16.3333 23H19.6667C20.5507 23 21.3986 22.6488 22.0237 22.0237C22.6488 21.3986 23 20.5507 23 19.6667C23 18.7826 22.6488 17.9348 22.0237 17.3097C21.3986 16.6845 20.5507 16.3333 19.6667 16.3333H14.6667C13.6667 16.3333 12.8333 16.6667 12.3333 17.3333L2.99999 26.3333M9.6667 33L12.3333 30.6667C12.8333 30 13.6667 29.6667 14.6667 29.6667H21.3333C23.1667 29.6667 24.8333 29 26 27.6667L33.6667 20.3333C34.3098 19.7256 34.6852 18.8872 34.7102 18.0026C34.7352 17.1181 34.4078 16.2598 33.8 15.6167C33.1922 14.9735 32.3538 14.5982 31.4693 14.5732C30.5847 14.5482 29.7265 14.8756 29.0833 15.4833L22.0833 21.9833M1.33333 24.6667L11.3333 34.6667M29.5 13C29.5 15.6694 27.336 17.8333 24.6667 17.8333C21.9973 17.8333 19.8333 15.6694 19.8333 13C19.8333 10.3306 21.9973 8.1667 24.6667 8.1667C27.336 8.1667 29.5 10.3306 29.5 13ZM13 6.33334C13 9.0948 10.7614 11.3333 8 11.3333C5.23857 11.3333 2.99999 9.0948 2.99999 6.33334C2.99999 3.57192 5.23857 1.33334 8 1.33334C10.7614 1.33334 13 3.57192 13 6.33334Z" stroke="#1768AC" stroke-width="2" stroke-linecap="round" stroke-linejoin="round"/>
</svg>
