<svg width="348" height="73" viewBox="0 0 348 73" fill="none" xmlns="http://www.w3.org/2000/svg">
<path d="M57.48 14.272H63.304C65.5013 14.272 67.2933 14.8053 68.68 15.872C70.0667 16.9173 70.76 18.592 70.76 20.896C70.76 23.1787 70.0667 24.864 68.68 25.952C67.2933 27.0187 65.5013 27.552 63.304 27.552H59.016V34.784C59.016 35.5947 58.6 36 57.768 36H57.48C56.648 36 56.232 35.5947 56.232 34.784V15.52C56.232 14.688 56.648 14.272 57.48 14.272ZM59.016 16.64V25.152H63.336C66.472 25.152 68.04 23.7333 68.04 20.896C68.04 18.0587 66.472 16.64 63.336 16.64H59.016ZM76.98 14.272H88.02C88.8093 14.272 89.204 14.6773 89.204 15.488C89.204 16.2773 88.8093 16.672 88.02 16.672H78.516V23.52H86.964C87.7533 23.52 88.148 23.9253 88.148 24.736C88.148 25.5253 87.7533 25.92 86.964 25.92H78.516V33.6H88.02C88.8093 33.6 89.204 34.0053 89.204 34.816C89.204 35.6053 88.8093 36 88.02 36H76.98C76.148 36 75.732 35.5947 75.732 34.784V15.488C75.732 14.6773 76.148 14.272 76.98 14.272ZM95.4808 14.272H96.1208C96.9314 14.272 97.6141 14.72 98.1688 15.616L109.177 31.616V15.52C109.177 15.072 109.273 14.752 109.465 14.56C109.657 14.368 109.966 14.272 110.393 14.272H110.681C111.513 14.272 111.929 14.688 111.929 15.52V34.464C111.929 34.912 111.822 35.2853 111.609 35.584C111.395 35.8613 111.086 36 110.681 36H110.265C109.454 36 108.675 35.456 107.929 34.368L96.9528 18.4V34.784C96.9528 35.5947 96.5688 36 95.8008 36H95.4808C94.6274 36 94.2008 35.5947 94.2008 34.784V15.84C94.2008 14.7947 94.6274 14.272 95.4808 14.272ZM119.668 14.272H120.308C121.119 14.272 121.802 14.72 122.356 15.616L133.364 31.616V15.52C133.364 15.072 133.46 14.752 133.652 14.56C133.844 14.368 134.154 14.272 134.58 14.272H134.868C135.7 14.272 136.116 14.688 136.116 15.52V34.464C136.116 34.912 136.01 35.2853 135.796 35.584C135.583 35.8613 135.274 36 134.868 36H134.452C133.642 36 132.863 35.456 132.116 34.368L121.14 18.4V34.784C121.14 35.5947 120.756 36 119.988 36H119.668C118.815 36 118.388 35.5947 118.388 34.784V15.84C118.388 14.7947 118.815 14.272 119.668 14.272ZM141.648 14.272H142.32C142.597 14.272 142.8 14.336 142.928 14.464C143.056 14.592 143.152 14.6987 143.216 14.784C143.301 14.8693 143.386 14.9973 143.472 15.168C143.557 15.3173 143.621 15.4453 143.664 15.552C143.706 15.6587 143.77 15.8187 143.856 16.032C143.962 16.2453 144.037 16.4053 144.08 16.512C145.509 19.6907 147.237 22.592 149.264 25.216H149.616C151.642 22.592 153.37 19.6907 154.8 16.512C154.842 16.4053 154.906 16.2453 154.992 16.032C155.098 15.8187 155.173 15.6587 155.216 15.552C155.258 15.4453 155.322 15.3173 155.408 15.168C155.493 14.9973 155.568 14.8693 155.632 14.784C155.717 14.6987 155.813 14.6027 155.92 14.496C156.069 14.3467 156.282 14.272 156.56 14.272H157.232C157.914 14.272 158.256 14.5707 158.256 15.168C158.256 15.4667 158.192 15.776 158.064 16.096C157.936 16.416 157.765 16.8107 157.552 17.28C157.338 17.728 157.146 18.144 156.976 18.528C156.805 18.8907 156.581 19.3067 156.304 19.776C156.048 20.2453 155.834 20.6293 155.664 20.928C155.514 21.2053 155.269 21.6 154.928 22.112C154.586 22.6027 154.341 22.9653 154.192 23.2C154.064 23.4133 153.797 23.7973 153.392 24.352C152.986 24.9067 152.72 25.2693 152.592 25.44C151.632 26.72 151.045 27.5093 150.832 27.808V34.784C150.832 35.5947 150.416 36 149.584 36H149.296C148.464 36 148.048 35.5947 148.048 34.784V27.808C147.834 27.5093 147.45 26.9973 146.896 26.272C146.362 25.5467 145.893 24.9067 145.488 24.352C145.082 23.7973 144.805 23.4133 144.656 23.2C144.528 22.9653 144.293 22.6027 143.952 22.112C143.61 21.6 143.354 21.2053 143.184 20.928C143.034 20.6293 142.821 20.2453 142.544 19.776C142.288 19.3067 142.074 18.8907 141.904 18.528C141.733 18.144 141.541 17.728 141.328 17.28C141.114 16.8107 140.944 16.416 140.816 16.096C140.688 15.776 140.624 15.4667 140.624 15.168C140.624 14.5707 140.965 14.272 141.648 14.272ZM164.011 14.272H169.835C172.033 14.272 173.825 14.8053 175.211 15.872C176.598 16.9173 177.291 18.592 177.291 20.896C177.291 23.1787 176.598 24.864 175.211 25.952C173.825 27.0187 172.033 27.552 169.835 27.552H165.547V34.784C165.547 35.5947 165.131 36 164.299 36H164.011C163.179 36 162.763 35.5947 162.763 34.784V15.52C162.763 14.688 163.179 14.272 164.011 14.272ZM165.547 16.64V25.152H169.867C173.003 25.152 174.571 23.7333 174.571 20.896C174.571 18.0587 173.003 16.64 169.867 16.64H165.547ZM189.911 14.304H190.263C190.797 14.304 191.138 14.368 191.287 14.496C191.458 14.624 191.565 14.7093 191.607 14.752C191.671 14.7733 191.746 14.8587 191.831 15.008C191.938 15.1573 192.002 15.2533 192.023 15.296C192.066 15.3387 192.141 15.4667 192.247 15.68C192.354 15.8933 192.429 16.032 192.471 16.096C195.095 20.8533 197.517 26.9547 199.735 34.4C199.799 34.656 199.831 34.9013 199.831 35.136C199.831 35.712 199.501 36 198.839 36H198.071C197.709 36 197.453 35.936 197.303 35.808C197.175 35.68 197.079 35.584 197.015 35.52C196.951 35.456 196.887 35.3387 196.823 35.168C196.759 34.976 196.717 34.8373 196.695 34.752C196.631 34.624 196.418 33.8987 196.055 32.576C195.714 31.232 195.33 29.9413 194.903 28.704H185.239C184.706 30.3467 184.29 31.744 183.991 32.896C183.693 34.048 183.522 34.6667 183.479 34.752C183.458 34.8373 183.415 34.976 183.351 35.168C183.287 35.3387 183.223 35.456 183.159 35.52C183.095 35.584 183.01 35.6587 182.903 35.744C182.733 35.9147 182.466 36 182.103 36H181.335C180.653 36 180.311 35.712 180.311 35.136C180.311 34.9867 180.354 34.7413 180.439 34.4C182.658 26.9547 185.079 20.8533 187.703 16.096C187.746 16.032 187.821 15.8933 187.927 15.68C188.034 15.4667 188.098 15.3387 188.119 15.296C188.162 15.2533 188.226 15.1573 188.311 15.008C188.418 14.8587 188.493 14.7733 188.535 14.752C188.599 14.7093 188.685 14.6453 188.791 14.56C188.898 14.4747 188.994 14.4213 189.079 14.4C189.378 14.336 189.655 14.304 189.911 14.304ZM190.071 17.344C188.685 19.7973 187.341 22.816 186.039 26.4H194.135C193.367 24.288 192.013 21.2693 190.071 17.344ZM205.48 14.272H205.768C206.6 14.272 207.016 14.6773 207.016 15.488V33.6H216.872C217.683 33.6 218.088 34.0053 218.088 34.816C218.088 35.6053 217.683 36 216.872 36H205.48C204.648 36 204.232 35.5947 204.232 34.784V15.488C204.232 14.6773 204.648 14.272 205.48 14.272Z" fill="#03256C"/>
<path d="M20.625 28.125H24.375C25.3696 28.125 26.3234 27.7299 27.0267 27.0266C27.7299 26.3234 28.125 25.3696 28.125 24.375C28.125 23.3804 27.7299 22.4266 27.0267 21.7234C26.3234 21.0201 25.3696 20.625 24.375 20.625H18.75C17.625 20.625 16.6875 21 16.125 21.75L5.625 31.875M13.125 39.375L16.125 36.75C16.6875 36 17.625 35.625 18.75 35.625H26.25C28.3125 35.625 30.1875 34.875 31.5 33.375L40.125 25.125C40.8485 24.4412 41.2708 23.4981 41.299 22.5029C41.3271 21.5078 40.9588 20.5423 40.275 19.8187C39.5912 19.0952 38.6481 18.6729 37.6529 18.6448C36.6578 18.6167 35.6923 18.985 34.9688 19.6687L27.0938 26.9813M3.75 30L15 41.25M35.4375 16.875C35.4375 19.878 33.0031 22.3125 30 22.3125C26.997 22.3125 24.5625 19.878 24.5625 16.875C24.5625 13.872 26.997 11.4375 30 11.4375C33.0031 11.4375 35.4375 13.872 35.4375 16.875ZM16.875 9.375C16.875 12.4816 14.3566 15 11.25 15C8.1434 15 5.625 12.4816 5.625 9.375C5.625 6.2684 8.1434 3.75 11.25 3.75C14.3566 3.75 16.875 6.2684 16.875 9.375Z" stroke="#03256C" stroke-width="2" stroke-linecap="round" stroke-linejoin="round"/>
<path d="M137.2 69V58.2H138.063V68.16H143.313V69H137.2ZM147.931 69.225C147.156 69.225 146.486 69.0525 145.921 68.7075C145.356 68.3575 144.919 67.865 144.609 67.23C144.299 66.59 144.144 65.835 144.144 64.965C144.144 64.08 144.296 63.3175 144.601 62.6775C144.911 62.0325 145.346 61.5375 145.906 61.1925C146.471 60.8475 147.141 60.675 147.916 60.675C148.701 60.675 149.371 60.855 149.926 61.215C150.486 61.57 150.911 62.085 151.201 62.76C151.496 63.435 151.636 64.2475 151.621 65.1975H150.721V64.8975C150.696 63.7875 150.446 62.9425 149.971 62.3625C149.496 61.7825 148.816 61.4925 147.931 61.4925C147.016 61.4925 146.309 61.795 145.809 62.4C145.314 63 145.066 63.85 145.066 64.95C145.066 66.04 145.314 66.885 145.809 67.485C146.309 68.085 147.011 68.385 147.916 68.385C148.541 68.385 149.086 68.24 149.551 67.95C150.021 67.655 150.394 67.235 150.669 66.69L151.449 67.035C151.124 67.735 150.654 68.275 150.039 68.655C149.424 69.035 148.721 69.225 147.931 69.225ZM144.736 65.1975V64.4175H151.134V65.1975H144.736ZM159.591 69.225C158.781 69.225 158.098 69.045 157.543 68.685C156.988 68.32 156.566 67.8175 156.276 67.1775C155.991 66.5325 155.843 65.79 155.833 64.95C155.843 64.095 155.993 63.3475 156.283 62.7075C156.578 62.0625 157.003 61.5625 157.558 61.2075C158.113 60.8525 158.793 60.675 159.598 60.675C160.383 60.675 161.073 60.865 161.668 61.245C162.268 61.62 162.683 62.1375 162.913 62.7975L162.073 63.105C161.868 62.6 161.546 62.21 161.106 61.935C160.666 61.655 160.161 61.515 159.591 61.515C158.951 61.515 158.423 61.6625 158.008 61.9575C157.593 62.2475 157.283 62.65 157.078 63.165C156.873 63.68 156.766 64.275 156.756 64.95C156.771 65.985 157.013 66.8175 157.483 67.4475C157.958 68.0725 158.661 68.385 159.591 68.385C160.166 68.385 160.663 68.2525 161.083 67.9875C161.508 67.7225 161.833 67.3375 162.058 66.8325L162.913 67.125C162.598 67.81 162.158 68.3325 161.593 68.6925C161.028 69.0475 160.361 69.225 159.591 69.225ZM167.589 69.225C166.784 69.225 166.102 69.0425 165.542 68.6775C164.982 68.3125 164.554 67.8075 164.259 67.1625C163.964 66.5175 163.817 65.775 163.817 64.935C163.817 64.09 163.967 63.3475 164.267 62.7075C164.567 62.0625 164.997 61.5625 165.557 61.2075C166.122 60.8525 166.799 60.675 167.589 60.675C168.394 60.675 169.077 60.8575 169.637 61.2225C170.202 61.5825 170.629 62.0825 170.919 62.7225C171.214 63.3625 171.362 64.1 171.362 64.935C171.362 65.79 171.214 66.54 170.919 67.185C170.624 67.825 170.194 68.325 169.629 68.685C169.064 69.045 168.384 69.225 167.589 69.225ZM167.589 68.385C168.544 68.385 169.257 68.065 169.727 67.425C170.202 66.785 170.439 65.955 170.439 64.935C170.439 63.895 170.202 63.065 169.727 62.445C169.252 61.825 168.539 61.515 167.589 61.515C166.944 61.515 166.412 61.6625 165.992 61.9575C165.572 62.2475 165.257 62.65 165.047 63.165C164.842 63.675 164.739 64.265 164.739 64.935C164.739 65.975 164.979 66.81 165.459 67.44C165.944 68.07 166.654 68.385 167.589 68.385ZM182.649 69L182.664 63.555C182.664 62.9 182.477 62.3875 182.102 62.0175C181.732 61.6425 181.269 61.455 180.714 61.455C180.399 61.455 180.087 61.5275 179.777 61.6725C179.472 61.8175 179.217 62.0525 179.012 62.3775C178.807 62.7025 178.704 63.1425 178.704 63.6975L178.097 63.6C178.077 63.01 178.184 62.4975 178.419 62.0625C178.659 61.6225 178.989 61.2825 179.409 61.0425C179.834 60.8025 180.317 60.6825 180.857 60.6825C181.652 60.6825 182.294 60.9275 182.784 61.4175C183.279 61.9075 183.527 62.5775 183.527 63.4275L183.512 69H182.649ZM173.012 69V60.9H173.799V62.7225H173.874V69H173.012ZM177.834 69L177.849 63.6375C177.849 62.9675 177.667 62.4375 177.302 62.0475C176.937 61.6525 176.462 61.455 175.877 61.455C175.282 61.455 174.799 61.66 174.429 62.07C174.059 62.475 173.874 63.0175 173.874 63.6975L173.274 63.3975C173.274 62.8725 173.394 62.4075 173.634 62.0025C173.874 61.5925 174.202 61.27 174.617 61.035C175.037 60.8 175.517 60.6825 176.057 60.6825C176.542 60.6825 176.984 60.785 177.384 60.99C177.784 61.195 178.104 61.505 178.344 61.92C178.584 62.33 178.704 62.845 178.704 63.465L178.689 69H177.834ZM189.025 69.225C188.295 69.225 187.678 69.035 187.173 68.655C186.668 68.275 186.283 67.7625 186.018 67.1175C185.753 66.4725 185.62 65.745 185.62 64.935C185.62 64.12 185.753 63.3925 186.018 62.7525C186.283 62.1075 186.675 61.6 187.195 61.23C187.715 60.86 188.353 60.675 189.108 60.675C189.843 60.675 190.47 60.8625 190.99 61.2375C191.51 61.6125 191.905 62.1225 192.175 62.7675C192.45 63.4125 192.588 64.135 192.588 64.935C192.588 65.745 192.448 66.475 192.168 67.125C191.893 67.77 191.49 68.2825 190.96 68.6625C190.435 69.0375 189.79 69.225 189.025 69.225ZM185.478 72.6V60.9H186.265V67.14H186.34V72.6H185.478ZM188.973 68.4C189.568 68.4 190.063 68.2475 190.458 67.9425C190.858 67.6375 191.158 67.225 191.358 66.705C191.563 66.18 191.665 65.59 191.665 64.935C191.665 64.285 191.565 63.7025 191.365 63.1875C191.17 62.6675 190.873 62.2575 190.473 61.9575C190.078 61.6525 189.573 61.5 188.958 61.5C188.363 61.5 187.865 61.6475 187.465 61.9425C187.065 62.2325 186.765 62.6375 186.565 63.1575C186.365 63.6775 186.265 64.27 186.265 64.935C186.265 65.595 186.363 66.1875 186.558 66.7125C186.758 67.2325 187.058 67.645 187.458 67.95C187.863 68.25 188.368 68.4 188.973 68.4ZM196.578 69.225C195.953 69.225 195.433 69.115 195.018 68.895C194.608 68.675 194.3 68.385 194.095 68.025C193.89 67.66 193.788 67.265 193.788 66.84C193.788 66.38 193.883 65.995 194.073 65.685C194.268 65.375 194.525 65.125 194.845 64.935C195.17 64.745 195.528 64.6025 195.918 64.5075C196.363 64.4075 196.843 64.3225 197.358 64.2525C197.873 64.1775 198.363 64.1125 198.828 64.0575C199.298 64.0025 199.68 63.955 199.975 63.915L199.66 64.1025C199.68 63.2275 199.515 62.5775 199.165 62.1525C198.82 61.7225 198.21 61.5075 197.335 61.5075C196.72 61.5075 196.213 61.6475 195.813 61.9275C195.418 62.2025 195.14 62.63 194.98 63.21L194.095 62.9625C194.28 62.2275 194.653 61.6625 195.213 61.2675C195.773 60.8725 196.49 60.675 197.365 60.675C198.11 60.675 198.735 60.82 199.24 61.11C199.75 61.4 200.105 61.8075 200.305 62.3325C200.39 62.5475 200.448 62.8 200.478 63.09C200.508 63.375 200.523 63.6625 200.523 63.9525V69H199.735V66.87L200.028 66.945C199.783 67.675 199.355 68.2375 198.745 68.6325C198.135 69.0275 197.413 69.225 196.578 69.225ZM196.623 68.43C197.173 68.43 197.655 68.3325 198.07 68.1375C198.485 67.9375 198.82 67.66 199.075 67.305C199.335 66.945 199.5 66.5225 199.57 66.0375C199.62 65.7675 199.648 65.475 199.653 65.16C199.658 64.845 199.66 64.6125 199.66 64.4625L200.035 64.7025C199.71 64.7425 199.32 64.785 198.865 64.83C198.415 64.875 197.955 64.93 197.485 64.995C197.015 65.06 196.59 65.1425 196.21 65.2425C195.975 65.3075 195.738 65.4025 195.498 65.5275C195.263 65.6475 195.065 65.815 194.905 66.03C194.75 66.245 194.673 66.5175 194.673 66.8475C194.673 67.0925 194.733 67.3375 194.853 67.5825C194.978 67.8275 195.183 68.03 195.468 68.19C195.753 68.35 196.138 68.43 196.623 68.43ZM205.62 72.825C205.22 72.825 204.82 72.765 204.42 72.645C204.025 72.53 203.655 72.34 203.31 72.075C202.965 71.815 202.672 71.4675 202.432 71.0325L203.212 70.5675C203.457 71.0675 203.805 71.425 204.255 71.64C204.705 71.855 205.162 71.9625 205.627 71.9625C206.282 71.9625 206.8 71.84 207.18 71.595C207.565 71.355 207.84 70.9925 208.005 70.5075C208.17 70.0275 208.252 69.43 208.252 68.715V66.5925H208.342V60.9H209.13V68.715C209.13 68.955 209.125 69.185 209.115 69.405C209.105 69.625 209.082 69.845 209.047 70.065C208.957 70.69 208.772 71.205 208.492 71.61C208.212 72.02 207.832 72.325 207.352 72.525C206.877 72.725 206.3 72.825 205.62 72.825ZM205.582 69.225C204.817 69.225 204.17 69.0375 203.64 68.6625C203.115 68.2825 202.712 67.77 202.432 67.125C202.157 66.475 202.02 65.745 202.02 64.935C202.02 64.135 202.157 63.4125 202.432 62.7675C202.707 62.1225 203.102 61.6125 203.617 61.2375C204.137 60.8625 204.765 60.675 205.5 60.675C206.255 60.675 206.892 60.86 207.412 61.23C207.932 61.6 208.325 62.1075 208.59 62.7525C208.855 63.3925 208.987 64.12 208.987 64.935C208.987 65.745 208.855 66.4725 208.59 67.1175C208.325 67.7625 207.94 68.275 207.435 68.655C206.93 69.035 206.312 69.225 205.582 69.225ZM205.635 68.4C206.24 68.4 206.742 68.25 207.142 67.95C207.547 67.645 207.847 67.2325 208.042 66.7125C208.242 66.1875 208.342 65.595 208.342 64.935C208.342 64.27 208.242 63.6775 208.042 63.1575C207.842 62.6375 207.542 62.2325 207.142 61.9425C206.742 61.6475 206.245 61.5 205.65 61.5C205.035 61.5 204.527 61.6525 204.127 61.9575C203.727 62.2575 203.43 62.6675 203.235 63.1875C203.04 63.7025 202.942 64.285 202.942 64.935C202.942 65.59 203.042 66.18 203.242 66.705C203.447 67.225 203.747 67.6375 204.142 67.9425C204.542 68.2475 205.04 68.4 205.635 68.4ZM217.162 69V64.785C217.162 64.275 217.11 63.82 217.005 63.42C216.905 63.02 216.75 62.68 216.54 62.4C216.335 62.12 216.075 61.9075 215.76 61.7625C215.45 61.6175 215.082 61.545 214.657 61.545C214.217 61.545 213.835 61.6225 213.51 61.7775C213.19 61.9275 212.925 62.14 212.715 62.415C212.51 62.69 212.355 63.0175 212.25 63.3975C212.15 63.7725 212.1 64.1825 212.1 64.6275L211.417 64.545C211.417 63.67 211.565 62.95 211.86 62.385C212.16 61.815 212.562 61.395 213.067 61.125C213.572 60.85 214.14 60.7125 214.77 60.7125C215.215 60.7125 215.612 60.7775 215.962 60.9075C216.317 61.0375 216.625 61.2225 216.885 61.4625C217.145 61.6975 217.36 61.9775 217.53 62.3025C217.7 62.6225 217.825 62.975 217.905 63.36C217.99 63.745 218.032 64.1475 218.032 64.5675V69H217.162ZM211.23 69V60.9H212.017V62.7225H212.1V69H211.23ZM223.268 69.225C222.463 69.225 221.781 69.0425 221.221 68.6775C220.661 68.3125 220.233 67.8075 219.938 67.1625C219.643 66.5175 219.496 65.775 219.496 64.935C219.496 64.09 219.646 63.3475 219.946 62.7075C220.246 62.0625 220.676 61.5625 221.236 61.2075C221.801 60.8525 222.478 60.675 223.268 60.675C224.073 60.675 224.756 60.8575 225.316 61.2225C225.881 61.5825 226.308 62.0825 226.598 62.7225C226.893 63.3625 227.041 64.1 227.041 64.935C227.041 65.79 226.893 66.54 226.598 67.185C226.303 67.825 225.873 68.325 225.308 68.685C224.743 69.045 224.063 69.225 223.268 69.225ZM223.268 68.385C224.223 68.385 224.936 68.065 225.406 67.425C225.881 66.785 226.118 65.955 226.118 64.935C226.118 63.895 225.881 63.065 225.406 62.445C224.931 61.825 224.218 61.515 223.268 61.515C222.623 61.515 222.091 61.6625 221.671 61.9575C221.251 62.2475 220.936 62.65 220.726 63.165C220.521 63.675 220.418 64.265 220.418 64.935C220.418 65.975 220.658 66.81 221.138 67.44C221.623 68.07 222.333 68.385 223.268 68.385ZM234.623 69V64.785C234.623 64.275 234.571 63.82 234.466 63.42C234.366 63.02 234.211 62.68 234.001 62.4C233.796 62.12 233.536 61.9075 233.221 61.7625C232.911 61.6175 232.543 61.545 232.118 61.545C231.678 61.545 231.296 61.6225 230.971 61.7775C230.651 61.9275 230.386 62.14 230.176 62.415C229.971 62.69 229.816 63.0175 229.711 63.3975C229.611 63.7725 229.561 64.1825 229.561 64.6275L228.878 64.545C228.878 63.67 229.026 62.95 229.321 62.385C229.621 61.815 230.023 61.395 230.528 61.125C231.033 60.85 231.601 60.7125 232.231 60.7125C232.676 60.7125 233.073 60.7775 233.423 60.9075C233.778 61.0375 234.086 61.2225 234.346 61.4625C234.606 61.6975 234.821 61.9775 234.991 62.3025C235.161 62.6225 235.286 62.975 235.366 63.36C235.451 63.745 235.493 64.1475 235.493 64.5675V69H234.623ZM228.691 69V60.9H229.478V62.7225H229.561V69H228.691ZM243.551 69.225C242.786 69.225 242.139 69.0375 241.609 68.6625C241.084 68.2825 240.681 67.77 240.401 67.125C240.126 66.475 239.989 65.745 239.989 64.935C239.989 64.135 240.126 63.4125 240.401 62.7675C240.676 62.1225 241.071 61.6125 241.586 61.2375C242.106 60.8625 242.734 60.675 243.469 60.675C244.224 60.675 244.861 60.86 245.381 61.23C245.901 61.6 246.294 62.1075 246.559 62.7525C246.824 63.3925 246.956 64.12 246.956 64.935C246.956 65.745 246.824 66.4725 246.559 67.1175C246.294 67.7625 245.909 68.275 245.404 68.655C244.899 69.035 244.281 69.225 243.551 69.225ZM243.604 68.4C244.209 68.4 244.711 68.25 245.111 67.95C245.516 67.645 245.816 67.2325 246.011 66.7125C246.211 66.1875 246.311 65.595 246.311 64.935C246.311 64.27 246.211 63.6775 246.011 63.1575C245.811 62.6375 245.511 62.2325 245.111 61.9425C244.711 61.6475 244.214 61.5 243.619 61.5C243.004 61.5 242.496 61.6525 242.096 61.9575C241.696 62.2575 241.399 62.6675 241.204 63.1875C241.009 63.7025 240.911 64.285 240.911 64.935C240.911 65.59 241.011 66.18 241.211 66.705C241.416 67.225 241.716 67.6375 242.111 67.9425C242.511 68.2475 243.009 68.4 243.604 68.4ZM246.311 69V62.76H246.236V58.2H247.099V69H246.311ZM252.536 69.225C251.761 69.225 251.091 69.0525 250.526 68.7075C249.961 68.3575 249.523 67.865 249.213 67.23C248.903 66.59 248.748 65.835 248.748 64.965C248.748 64.08 248.901 63.3175 249.206 62.6775C249.516 62.0325 249.951 61.5375 250.511 61.1925C251.076 60.8475 251.746 60.675 252.521 60.675C253.306 60.675 253.976 60.855 254.531 61.215C255.091 61.57 255.516 62.085 255.806 62.76C256.101 63.435 256.241 64.2475 256.226 65.1975H255.326V64.8975C255.301 63.7875 255.051 62.9425 254.576 62.3625C254.101 61.7825 253.421 61.4925 252.536 61.4925C251.621 61.4925 250.913 61.795 250.413 62.4C249.918 63 249.671 63.85 249.671 64.95C249.671 66.04 249.918 66.885 250.413 67.485C250.913 68.085 251.616 68.385 252.521 68.385C253.146 68.385 253.691 68.24 254.156 67.95C254.626 67.655 254.998 67.235 255.273 66.69L256.053 67.035C255.728 67.735 255.258 68.275 254.643 68.655C254.028 69.035 253.326 69.225 252.536 69.225ZM249.341 65.1975V64.4175H255.738V65.1975H249.341ZM263.078 69L260.138 60.9H261.03L263.535 67.8225L266.033 60.9H266.933L263.993 69H263.078ZM271.315 69.225C270.51 69.225 269.827 69.0425 269.267 68.6775C268.707 68.3125 268.28 67.8075 267.985 67.1625C267.69 66.5175 267.542 65.775 267.542 64.935C267.542 64.09 267.692 63.3475 267.992 62.7075C268.292 62.0625 268.722 61.5625 269.282 61.2075C269.847 60.8525 270.525 60.675 271.315 60.675C272.12 60.675 272.802 60.8575 273.362 61.2225C273.927 61.5825 274.355 62.0825 274.645 62.7225C274.94 63.3625 275.087 64.1 275.087 64.935C275.087 65.79 274.94 66.54 274.645 67.185C274.35 67.825 273.92 68.325 273.355 68.685C272.79 69.045 272.11 69.225 271.315 69.225ZM271.315 68.385C272.27 68.385 272.982 68.065 273.452 67.425C273.927 66.785 274.165 65.955 274.165 64.935C274.165 63.895 273.927 63.065 273.452 62.445C272.977 61.825 272.265 61.515 271.315 61.515C270.67 61.515 270.137 61.6625 269.717 61.9575C269.297 62.2475 268.982 62.65 268.772 63.165C268.567 63.675 268.465 64.265 268.465 64.935C268.465 65.975 268.705 66.81 269.185 67.44C269.67 68.07 270.38 68.385 271.315 68.385ZM281.035 69C280.605 69.095 280.18 69.13 279.76 69.105C279.34 69.085 278.965 68.9925 278.635 68.8275C278.31 68.6575 278.065 68.3975 277.9 68.0475C277.765 67.7625 277.69 67.475 277.675 67.185C277.66 66.895 277.653 66.5625 277.653 66.1875V58.65H278.523V66.1725C278.523 66.5125 278.525 66.795 278.53 67.02C278.54 67.24 278.593 67.4425 278.688 67.6275C278.868 67.9725 279.153 68.1825 279.542 68.2575C279.933 68.3275 280.43 68.315 281.035 68.22V69ZM275.838 61.6875V60.9H281.035V61.6875H275.838ZM282.582 69V60.9H283.37V62.8425L283.175 62.5875C283.265 62.3575 283.377 62.145 283.512 61.95C283.652 61.75 283.795 61.5875 283.94 61.4625C284.155 61.2625 284.407 61.1125 284.697 61.0125C284.987 60.9075 285.28 60.8475 285.575 60.8325C285.87 60.8125 286.137 60.835 286.377 60.9V61.7175C286.057 61.6425 285.717 61.6275 285.357 61.6725C284.997 61.7175 284.66 61.8725 284.345 62.1375C284.07 62.3775 283.87 62.6575 283.745 62.9775C283.62 63.2925 283.54 63.625 283.505 63.975C283.47 64.32 283.452 64.6575 283.452 64.9875V69H282.582ZM290.988 69.225C290.213 69.225 289.543 69.0525 288.978 68.7075C288.413 68.3575 287.976 67.865 287.666 67.23C287.356 66.59 287.201 65.835 287.201 64.965C287.201 64.08 287.353 63.3175 287.658 62.6775C287.968 62.0325 288.403 61.5375 288.963 61.1925C289.528 60.8475 290.198 60.675 290.973 60.675C291.758 60.675 292.428 60.855 292.983 61.215C293.543 61.57 293.968 62.085 294.258 62.76C294.553 63.435 294.693 64.2475 294.678 65.1975H293.778V64.8975C293.753 63.7875 293.503 62.9425 293.028 62.3625C292.553 61.7825 291.873 61.4925 290.988 61.4925C290.073 61.4925 289.366 61.795 288.866 62.4C288.371 63 288.123 63.85 288.123 64.95C288.123 66.04 288.371 66.885 288.866 67.485C289.366 68.085 290.068 68.385 290.973 68.385C291.598 68.385 292.143 68.24 292.608 67.95C293.078 67.655 293.451 67.235 293.726 66.69L294.506 67.035C294.181 67.735 293.711 68.275 293.096 68.655C292.481 69.035 291.778 69.225 290.988 69.225ZM287.793 65.1975V64.4175H294.191V65.1975H287.793ZM302.888 69.225C302.158 69.225 301.54 69.035 301.035 68.655C300.53 68.275 300.145 67.7625 299.88 67.1175C299.615 66.4725 299.483 65.745 299.483 64.935C299.483 64.12 299.615 63.3925 299.88 62.7525C300.145 62.1075 300.538 61.6 301.058 61.23C301.578 60.86 302.215 60.675 302.97 60.675C303.705 60.675 304.333 60.8625 304.853 61.2375C305.373 61.6125 305.768 62.1225 306.038 62.7675C306.313 63.4125 306.45 64.135 306.45 64.935C306.45 65.745 306.31 66.475 306.03 67.125C305.755 67.77 305.353 68.2825 304.823 68.6625C304.298 69.0375 303.653 69.225 302.888 69.225ZM299.34 69V58.2H300.203V62.76H300.128V69H299.34ZM302.835 68.4C303.43 68.4 303.925 68.2475 304.32 67.9425C304.72 67.6375 305.02 67.225 305.22 66.705C305.425 66.18 305.528 65.59 305.528 64.935C305.528 64.285 305.428 63.7025 305.228 63.1875C305.033 62.6675 304.735 62.2575 304.335 61.9575C303.94 61.6525 303.435 61.5 302.82 61.5C302.225 61.5 301.728 61.6475 301.328 61.9425C300.928 62.2325 300.628 62.6375 300.428 63.1575C300.228 63.6775 300.128 64.27 300.128 64.935C300.128 65.595 300.225 66.1875 300.42 66.7125C300.62 67.2325 300.92 67.645 301.32 67.95C301.725 68.25 302.23 68.4 302.835 68.4ZM311.212 69.1875C310.767 69.1875 310.367 69.1225 310.012 68.9925C309.662 68.8625 309.357 68.68 309.097 68.445C308.837 68.205 308.622 67.925 308.452 67.605C308.282 67.28 308.155 66.925 308.07 66.54C307.99 66.155 307.95 65.7525 307.95 65.3325V60.9H308.82V65.115C308.82 65.625 308.87 66.08 308.97 66.48C309.075 66.88 309.23 67.22 309.435 67.5C309.645 67.78 309.905 67.9925 310.215 68.1375C310.53 68.2825 310.9 68.355 311.325 68.355C311.765 68.355 312.145 68.28 312.465 68.13C312.79 67.975 313.055 67.76 313.26 67.485C313.47 67.21 313.625 66.885 313.725 66.51C313.83 66.13 313.882 65.7175 313.882 65.2725L314.565 65.355C314.565 66.23 314.415 66.9525 314.115 67.5225C313.82 68.0875 313.42 68.5075 312.915 68.7825C312.41 69.0525 311.842 69.1875 311.212 69.1875ZM313.965 69V67.1775H313.882V60.9H314.752V69H313.965ZM319.957 69.225C319.192 69.225 318.545 69.0375 318.015 68.6625C317.49 68.2825 317.087 67.77 316.807 67.125C316.532 66.475 316.395 65.745 316.395 64.935C316.395 64.135 316.532 63.4125 316.807 62.7675C317.082 62.1225 317.477 61.6125 317.992 61.2375C318.512 60.8625 319.14 60.675 319.875 60.675C320.63 60.675 321.267 60.86 321.787 61.23C322.307 61.6 322.7 62.1075 322.965 62.7525C323.23 63.3925 323.362 64.12 323.362 64.935C323.362 65.745 323.23 66.4725 322.965 67.1175C322.7 67.7625 322.315 68.275 321.81 68.655C321.305 69.035 320.687 69.225 319.957 69.225ZM320.01 68.4C320.615 68.4 321.117 68.25 321.517 67.95C321.922 67.645 322.222 67.2325 322.417 66.7125C322.617 66.1875 322.717 65.595 322.717 64.935C322.717 64.27 322.617 63.6775 322.417 63.1575C322.217 62.6375 321.917 62.2325 321.517 61.9425C321.117 61.6475 320.62 61.5 320.025 61.5C319.41 61.5 318.902 61.6525 318.502 61.9575C318.102 62.2575 317.805 62.6675 317.61 63.1875C317.415 63.7025 317.317 64.285 317.317 64.935C317.317 65.59 317.417 66.18 317.617 66.705C317.822 67.225 318.122 67.6375 318.517 67.9425C318.917 68.2475 319.415 68.4 320.01 68.4ZM322.717 69V62.76H322.642V58.2H323.505V69H322.717ZM328.755 72.825C328.355 72.825 327.955 72.765 327.555 72.645C327.16 72.53 326.79 72.34 326.445 72.075C326.1 71.815 325.807 71.4675 325.567 71.0325L326.347 70.5675C326.592 71.0675 326.94 71.425 327.39 71.64C327.84 71.855 328.297 71.9625 328.762 71.9625C329.417 71.9625 329.935 71.84 330.315 71.595C330.7 71.355 330.975 70.9925 331.14 70.5075C331.305 70.0275 331.387 69.43 331.387 68.715V66.5925H331.477V60.9H332.265V68.715C332.265 68.955 332.26 69.185 332.25 69.405C332.24 69.625 332.217 69.845 332.182 70.065C332.092 70.69 331.907 71.205 331.627 71.61C331.347 72.02 330.967 72.325 330.487 72.525C330.012 72.725 329.435 72.825 328.755 72.825ZM328.717 69.225C327.952 69.225 327.305 69.0375 326.775 68.6625C326.25 68.2825 325.847 67.77 325.567 67.125C325.292 66.475 325.155 65.745 325.155 64.935C325.155 64.135 325.292 63.4125 325.567 62.7675C325.842 62.1225 326.237 61.6125 326.752 61.2375C327.272 60.8625 327.9 60.675 328.635 60.675C329.39 60.675 330.027 60.86 330.547 61.23C331.067 61.6 331.46 62.1075 331.725 62.7525C331.99 63.3925 332.122 64.12 332.122 64.935C332.122 65.745 331.99 66.4725 331.725 67.1175C331.46 67.7625 331.075 68.275 330.57 68.655C330.065 69.035 329.447 69.225 328.717 69.225ZM328.77 68.4C329.375 68.4 329.877 68.25 330.277 67.95C330.682 67.645 330.982 67.2325 331.177 66.7125C331.377 66.1875 331.477 65.595 331.477 64.935C331.477 64.27 331.377 63.6775 331.177 63.1575C330.977 62.6375 330.677 62.2325 330.277 61.9425C329.877 61.6475 329.38 61.5 328.785 61.5C328.17 61.5 327.662 61.6525 327.262 61.9575C326.862 62.2575 326.565 62.6675 326.37 63.1875C326.175 63.7025 326.077 64.285 326.077 64.935C326.077 65.59 326.177 66.18 326.377 66.705C326.582 67.225 326.882 67.6375 327.277 67.9425C327.677 68.2475 328.175 68.4 328.77 68.4ZM337.702 69.225C336.927 69.225 336.257 69.0525 335.692 68.7075C335.127 68.3575 334.689 67.865 334.379 67.23C334.069 66.59 333.914 65.835 333.914 64.965C333.914 64.08 334.067 63.3175 334.372 62.6775C334.682 62.0325 335.117 61.5375 335.677 61.1925C336.242 60.8475 336.912 60.675 337.687 60.675C338.472 60.675 339.142 60.855 339.697 61.215C340.257 61.57 340.682 62.085 340.972 62.76C341.267 63.435 341.407 64.2475 341.392 65.1975H340.492V64.8975C340.467 63.7875 340.217 62.9425 339.742 62.3625C339.267 61.7825 338.587 61.4925 337.702 61.4925C336.787 61.4925 336.079 61.795 335.579 62.4C335.084 63 334.837 63.85 334.837 64.95C334.837 66.04 335.084 66.885 335.579 67.485C336.079 68.085 336.782 68.385 337.687 68.385C338.312 68.385 338.857 68.24 339.322 67.95C339.792 67.655 340.164 67.235 340.439 66.69L341.219 67.035C340.894 67.735 340.424 68.275 339.809 68.655C339.194 69.035 338.492 69.225 337.702 69.225ZM334.507 65.1975V64.4175H340.904V65.1975H334.507ZM347.348 69C346.918 69.095 346.493 69.13 346.073 69.105C345.653 69.085 345.278 68.9925 344.948 68.8275C344.623 68.6575 344.378 68.3975 344.213 68.0475C344.078 67.7625 344.003 67.475 343.988 67.185C343.973 66.895 343.966 66.5625 343.966 66.1875V58.65H344.836V66.1725C344.836 66.5125 344.838 66.795 344.843 67.02C344.853 67.24 344.906 67.4425 345.001 67.6275C345.181 67.9725 345.466 68.1825 345.856 68.2575C346.246 68.3275 346.743 68.315 347.348 68.22V69ZM342.151 61.6875V60.9H347.348V61.6875H342.151Z" fill="#0A5C6B"/>
</svg>
